# xmcd
#
# Track frame offsets:
#   150
#   18098
#   33529
#   49181
#   62476
#   82042
#   97223
#   109837
#   122600
#   136253
#   152047
#   167143
#   179340
#
# Disc length: 2634 seconds
#
# Revision: 0
# Processed by: cddbd v1.5.2PL0 Copyright (c) Steve Scherf et al.
# Submitted via: uFREEDB ActiveX Control 1.5
#
DISCID=aa0a480d
DTITLE=BAITACA - AO VIVO
DYEAR=1900
DGENRE=Country
TTITLE0=DO FUNDO DA GROTA
TTITLE1=MISSIONEIRO EXTRAVIADO
TTITLE2=DOMADOR VENTENA
TTITLE3=DE TUDO UM POUCO
TTITLE4=HISTORIA DO TICO LOCO
TTITLE5=DAS MISSOES PARA O RIO GRANDE
TTITLE6=BUGIO LACAIO
TTITLE7=CAD VEZ MAIS XUCRO
TTITLE8=NA FAZENDA FERRADURA
TTITLE9=ENCONTREI A MARCULINA
TTITLE10=RETOCO DE XUCRO
TTITLE11=MEU RIO GRANDE E DESSE JEITO
TTITLE12=TAPERA
EXTD=
EXTT0=
EXTT1=
EXTT2=
EXTT3=
EXTT4=
EXTT5=
EXTT6=
EXTT7=
EXTT8=
EXTT9=
EXTT10=
EXTT11=
EXTT12=
PLAYORDER=
